# File created by Blade
# Date/Time:  Thu Mar 15 16:00:31 2018
#---------------------------------------------------------
:version 1.10
:name HOM
:units
  mass 1.0
  length 1.000000
  angle deg
:documentation
     Acclaim Skeleton File
:root
   axis xyz
   order TX TY TZ RX RZ RY
   position 0.000000 0.000000 0.000000
   orientation 0 0 0
:bonedata
   begin
      id 1
      name Spine_dum
      direction 0.000000 0.554700 0.832050
      length 3.185137
      axis 0.0 0.0 0.0 xyz
   end
   begin
      id 2
      name RightUpLeg_dum
      direction -0.959879 0.000000 -0.280414
      length 3.741437
      axis 0.0 0.0 0.0 xyz
   end
   begin
      id 3
      name LeftUpLeg_dum
      direction 0.959879 0.000000 -0.280414
      length 3.741437
      axis 0.0 0.0 0.0 xyz
   end
   begin
      id 4
      name Spine
      direction 0.000000 0.173648 0.984808
      length 3.533592
      axis -10.0 0.0 0.0 xyz
      dof rx rz ry
   end
   begin
      id 5
      name Spine1
      direction 0.000000 0.087156 0.996195
      length 3.533592
      axis -5.0 0.0 0.0 xyz
      dof rx rz ry
   end
   begin
      id 6
      name Spine2
      direction 0.000000 0.000000 1.000000
      length 3.533592
      axis 0.0 0.0 0.0 xyz
      dof rx rz ry
   end
   begin
      id 7
      name Spine3
      direction 0.000000 -0.141421 0.989949
      length 0.000000
      axis 0.0 0.0 0.0 xyz
      dof rx rz ry
   end
   begin
      id 8
      name Spine3_dum1
      direction 0.000000 -0.141421 0.989949
      length 9.369850
      axis 0.0 0.0 0.0 xyz
   end
   begin
      id 9
      name Spine3_dum2
      direction -0.174242 -0.290403 0.940907
      length 6.947577
      axis 0.0 0.0 0.0 xyz
   end
   begin
      id 10
      name Spine3_dum3
      direction 0.174242 -0.290403 0.940907
      length 6.947577
      axis 0.0 0.0 0.0 xyz
   end
   begin
      id 11
      name Neck
      direction 0.000000 -0.173648 0.984808
      length 4.858689
      axis 10.0 0.0 0.0 xyz
      dof rx rz ry
   end
   begin
      id 12
      name Head
      direction 0.000000 0.000000 1.000000
      length 5.720002
      axis 0.0 0.0 0.0 xyz
      dof rx rz ry
   end
   begin
      id 13
      name RightShoulder
      direction -1.000000 0.000000 0.000000
      length 6.012446
      axis -180.0 0.0 -180.0 xyz
      dof rz rx ry
   end
   begin
      id 14
      name RightArm
      direction -1.000000 0.000000 0.000000
      length 11.728112
      axis -180.0 0.0 -180.0 xyz
      dof ry rz rx
   end
   begin
      id 15
      name RightForeArm
      direction -1.000000 0.000000 0.000000
      length 4.841601
      axis -180.0 0.0 -180.0 xyz
      dof rx ry rz
   end
   begin
      id 16
      name RightForeArmRoll
      direction -1.000000 0.000000 0.000000
      length 5.003964
      axis -180.0 0.0 -180.0 xyz
      dof rx ry rz
   end
   begin
      id 17
      name RightHand
      direction -1.000000 0.000000 0.000000
      length 0.000000
      axis -180.0 0.0 -180.0 xyz
      dof rx ry rz
   end
   begin
      id 18
      name RightHand_dum1
      direction -1.000000 0.000000 0.000000
      length 2.836875
      axis -180.0 0.0 -180.0 xyz
   end
   begin
      id 19
      name RightHand_dum2
      direction -0.486664 -0.811107 -0.324443
      length 2.331690
      axis -180.0 0.0 -180.0 xyz
   end
   begin
      id 20
      name RightHandEnd
      direction -1.000000 0.000000 0.000000
      length 2.836875
      axis 90.0 0.0 -180.0 xyz
      dof rx ry rz
   end
   begin
      id 21
      name RightHandThumb1
      direction -0.965926 -0.258819 0.000000
      length 2.836875
      axis -10.0 0.0 -165.0 xyz
      dof rx ry rz
   end
   begin
      id 22
      name LeftShoulder
      direction 1.000000 0.000000 0.000000
      length 6.012446
      axis 0.0 0.0 0.0 xyz
      dof rz rx ry
   end
   begin
      id 23
      name LeftArm
      direction 1.000000 0.000000 0.000000
      length 11.728112
      axis 0.0 0.0 0.0 xyz
      dof ry rz rx
   end
   begin
      id 24
      name LeftForeArm
      direction 1.000000 0.000000 0.000000
      length 4.841601
      axis 0.0 0.0 0.0 xyz
      dof rx ry rz
   end
   begin
      id 25
      name LeftForeArmRoll
      direction 1.000000 0.000000 0.000000
      length 5.003964
      axis 0.0 0.0 0.0 xyz
      dof rx ry rz
   end
   begin
      id 26
      name LeftHand
      direction 1.000000 0.000000 0.000000
      length 0.000000
      axis 0.0 0.0 0.0 xyz
      dof rx ry rz
   end
   begin
      id 27
      name LeftHand_dum1
      direction 1.000000 0.000000 0.000000
      length 2.836875
      axis 0.0 0.0 0.0 xyz
   end
   begin
      id 28
      name LeftHand_dum2
      direction 0.486664 -0.811107 -0.324443
      length 2.331690
      axis 0.0 0.0 0.0 xyz
   end
   begin
      id 29
      name LeftHandEnd
      direction 1.000000 0.000000 0.000000
      length 2.836875
      axis 90.0 0.0 0.0 xyz
      dof rx ry rz
   end
   begin
      id 30
      name LeftHandThumb1
      direction 0.965926 -0.258819 0.000000
      length 2.836875
      axis 170.0 0.0 -15.0 xyz
      dof rx ry rz
   end
   begin
      id 31
      name RightUpLeg
      direction 0.000000 0.000000 -1.000000
      length 15.861483
      axis 0.0 90.0 0.0 xyz
      dof ry rz rx
   end
   begin
      id 32
      name RightLeg
      direction 0.000000 0.000000 -1.000000
      length 17.164458
      axis 0.0 90.0 0.0 xyz
      dof rx ry rz
   end
   begin
      id 33
      name RightFoot
      direction 0.000000 -0.939693 -0.342020
      length 7.211980
      axis -90.0 20.0 -90.0 xyz
      dof rx rz ry
   end
   begin
      id 34
      name RightToeBase
      direction 0.000000 -1.000000 0.000000
      length 2.905343
      axis -90.0 0.0 -90.0 xyz
      dof ry rz rx
   end
   begin
      id 35
      name LeftUpLeg
      direction 0.000000 0.000000 -1.000000
      length 15.861483
      axis 0.0 90.0 0.0 xyz
      dof ry rz rx
   end
   begin
      id 36
      name LeftLeg
      direction 0.000000 0.000000 -1.000000
      length 17.164458
      axis 0.0 90.0 0.0 xyz
      dof rx ry rz
   end
   begin
      id 37
      name LeftFoot
      direction 0.000000 -0.939693 -0.342020
      length 7.211980
      axis -90.0 20.0 -90.0 xyz
      dof rx rz ry
   end
   begin
      id 38
      name LeftToeBase
      direction 0.000000 -1.000000 0.000000
      length 2.905343
      axis -90.0 0.0 -90.0 xyz
      dof ry rz rx
   end
:hierarchy
   begin
      root Spine_dum RightUpLeg_dum LeftUpLeg_dum
      Spine_dum Spine
      RightUpLeg_dum RightUpLeg
      LeftUpLeg_dum LeftUpLeg
      Spine Spine1
      Spine1 Spine2
      Spine2 Spine3
      Spine3 Spine3_dum1 Spine3_dum2 Spine3_dum3
      Spine3_dum1 Neck
      Spine3_dum2 RightShoulder
      Spine3_dum3 LeftShoulder
      Neck Head
      RightShoulder RightArm
      RightArm RightForeArm
      RightForeArm RightForeArmRoll
      RightForeArmRoll RightHand
      RightHand RightHand_dum1 RightHand_dum2
      RightHand_dum1 RightHandEnd
      RightHand_dum2 RightHandThumb1
      LeftShoulder LeftArm
      LeftArm LeftForeArm
      LeftForeArm LeftForeArmRoll
      LeftForeArmRoll LeftHand
      LeftHand LeftHand_dum1 LeftHand_dum2
      LeftHand_dum1 LeftHandEnd
      LeftHand_dum2 LeftHandThumb1
      RightUpLeg RightLeg
      RightLeg RightFoot
      RightFoot RightToeBase
      LeftUpLeg LeftLeg
      LeftLeg LeftFoot
      LeftFoot LeftToeBase
   end

# File created by Blade
# Date/Time:  Thu Mar 15 15:59:21 2018
# Frame Rate: 120.000 fps
#------------------------------------------------------
:FULLY-SPECIFIED
:DEGREES
110
root -0.253068 38.229459 -0.860666 -88.894394 0.162353 -0.037907
Spine -0.243892 0.063016 0.331611
Spine1 -0.640739 -0.003171 0.010627
Spine2 1.490558 0.317776 0.463349
Spine3 0.150956 -0.079774 -0.404296
Neck -1.021887 -0.185604 -0.249937
Head -0.813875 -1.007796 -0.245311
RightShoulder 0.948803 -4.332656 -6.219801
RightArm -68.155380 -18.448912 -8.941445
RightForeArm 0.000000 -0.000000 -31.225887
RightForeArmRoll 4.998680 -0.000000 -0.000000
RightHand 0.000000 7.197278 -3.325056
RightHandEnd 0.000000 -0.000000 0.000000
RightHandThumb1 0.000000 -0.000000 0.000000
LeftShoulder 3.067063 5.145278 6.387417
LeftArm 67.680504 -38.184246 1.888493
LeftForeArm 0.000000 -0.000000 -19.194706
LeftForeArmRoll -4.441912 -0.000000 0.000000
LeftHand 0.000000 -21.252880 1.069544
LeftHandEnd 0.000000 -0.000000 0.000000
LeftHandThumb1 0.000000 -0.000000 0.000000
RightUpLeg 4.013841 -1.531310 9.390669
RightLeg -0.000000 -0.000000 14.438561
RightFoot 3.944139 -14.758739 -1.887005
RightToeBase -0.000000 0.866420 -0.000000
LeftUpLeg -5.144572 0.284605 0.726896
LeftLeg -0.000000 -0.000000 11.099011
LeftFoot -8.048960 -12.527087 -0.396349
LeftToeBase -0.000000 0.804354 -0.000000
111
root -0.253251 38.230405 -0.861876 -88.899139 0.153326 -0.043982
Spine -0.242260 0.062706 0.326456
Spine1 -0.638268 -0.002746 0.010446
Spine2 1.481202 0.319691 0.459630
Spine3 0.148686 -0.074686 -0.408371
Neck -1.013323 -0.193782 -0.252042
Head -0.799905 -1.006459 -0.224082
RightShoulder 0.960316 -4.350205 -6.212119
RightArm -68.162849 -18.449331 -8.925834
RightForeArm 0.000000 -0.000000 -31.225452
RightForeArmRoll 5.081037 -0.000000 -0.000000
RightHand 0.000000 7.229774 -3.339432
RightHandEnd 0.000000 -0.000000 0.000000
RightHandThumb1 0.000000 -0.000000 0.000000
LeftShoulder 3.065745 5.153373 6.411067
LeftArm 67.669922 -38.182560 1.880393
LeftForeArm 0.000000 -0.000000 -19.187891
LeftForeArmRoll -4.472512 -0.000000 0.000000
LeftHand 0.000000 -21.264759 1.040651
LeftHandEnd 0.000000 -0.000000 0.000000
LeftHandThumb1 0.000000 -0.000000 0.000000
RightUpLeg 4.001095 -1.521993 9.355030
RightLeg -0.000000 -0.000000 14.432562
RightFoot 3.971829 -14.761858 -1.865399
RightToeBase -0.000000 0.893108 -0.000000
LeftUpLeg -5.155758 0.291529 0.728479
LeftLeg -0.000000 -0.000000 11.096294
LeftFoot -8.079032 -12.534266 -0.397506
LeftToeBase -0.000000 0.823315 -0.000000
112
root -0.251722 38.231397 -0.863137 -88.902626 0.158759 -0.051822
Spine -0.245339 0.063753 0.327056
Spine1 -0.642763 -0.002809 0.008993
Spine2 1.485638 0.323734 0.461587
Spine3 0.148637 -0.073881 -0.408099
Neck -1.012853 -0.190907 -0.238623
Head -0.785267 -1.012302 -0.218590
RightShoulder 0.963385 -4.353461 -6.211081
RightArm -68.166061 -18.438940 -8.921260
RightForeArm 0.000000 -0.000000 -31.221584
RightForeArmRoll 5.169592 -0.000000 -0.000000
RightHand 0.000000 7.256421 -3.401395
RightHandEnd 0.000000 -0.000000 0.000000
RightHandThumb1 0.000000 -0.000000 0.000000
LeftShoulder 3.067720 5.167179 6.431976
LeftArm 67.657463 -38.183933 1.859539
LeftForeArm 0.000000 -0.000000 -19.172245
LeftForeArmRoll -5.485233 -0.000000 0.000000
LeftHand -0.000000 -21.639240 0.351400
LeftHandEnd 0.000000 -0.000000 0.000000
LeftHandThumb1 0.000000 -0.000000 0.000000
RightUpLeg 4.006601 -1.518534 9.332860
RightLeg -0.000000 -0.000000 14.422336
RightFoot 3.980096 -14.756208 -1.852396
RightToeBase -0.000000 0.884384 -0.000000
LeftUpLeg -5.148059 0.294007 0.740545
LeftLeg -0.000000 -0.000000 11.095667
LeftFoot -8.087077 -12.523601 -0.407377
LeftToeBase -0.000000 0.813269 -0.000000
113
root -0.250857 38.231595 -0.864882 -88.905594 0.156662 -0.049359
Spine -0.246606 0.063230 0.325111
Spine1 -0.646292 -0.002788 0.010874
Spine2 1.484022 0.319443 0.456405
Spine3 0.150365 -0.072718 -0.409624
Neck -0.997296 -0.192622 -0.237173
Head -0.785766 -1.011448 -0.197599
RightShoulder 0.962267 -4.360933 -6.207625
RightArm -68.167366 -18.435331 -8.919940
RightForeArm 0.000000 -0.000000 -31.222456
RightForeArmRoll 4.928648 -0.000000 -0.000000
RightHand -0.000000 7.169949 -3.330463
RightHandEnd 0.000000 -0.000000 0.000000
RightHandThumb1 0.000000 -0.000000 0.000000
LeftShoulder 3.066224 5.175094 6.448164
LeftArm 67.655663 -38.173840 1.840326
LeftForeArm 0.000000 -0.000000 -19.171764
LeftForeArmRoll -4.561411 -0.000000 0.000000
LeftHand -0.000000 -21.259869 1.007365
LeftHandEnd 0.000000 -0.000000 0.000000
LeftHandThumb1 0.000000 -0.000000 0.000000
RightUpLeg 4.001568 -1.514002 9.315917
RightLeg -0.000000 -0.000000 14.418671
RightFoot 4.001203 -14.755033 -1.831601
RightToeBase -0.000000 0.901207 -0.000000
LeftUpLeg -5.150078 0.286719 0.737506
LeftLeg -0.000000 -0.000000 11.108725
LeftFoot -8.099975 -12.524739 -0.398711
LeftToeBase -0.000000 0.809207 -0.000000
114
root -0.249416 38.231318 -0.865640 -88.920547 0.156855 -0.058310
Spine -0.243689 0.063380 0.321011
Spine1 -0.642552 -0.003176 0.005484
Spine2 1.485746 0.322393 0.461728
Spine3 0.146664 -0.072610 -0.405796
Neck -1.024570 -0.199428 -0.244245
Head -0.734051 -1.034059 -0.173433
RightShoulder 0.960115 -4.371761 -6.221087
RightArm -68.131798 -18.664856 -9.012123
RightForeArm 0.000000 -0.000000 -31.191568
RightForeArmRoll 4.397338 -0.000000 -0.000000
RightHand 0.000000 7.848711 -3.080251
RightHandEnd 0.000000 -0.000000 0.000000
RightHandThumb1 0.000000 -0.000000 0.000000
LeftShoulder 3.067947 5.189467 6.449811
LeftArm 67.672775 -38.160805 1.806234
LeftForeArm 0.000000 -0.000000 -19.167446
LeftForeArmRoll -4.526800 -0.000000 0.000000
LeftHand 0.000000 -21.248697 1.034136
LeftHandEnd 0.000000 -0.000000 0.000000
LeftHandThumb1 0.000000 -0.000000 0.000000
RightUpLeg 4.005666 -1.498189 9.298490
RightLeg -0.000000 -0.000000 14.416026
RightFoot 3.988427 -14.753998 -1.823769
RightToeBase -0.000000 0.883290 -0.000000
LeftUpLeg -5.149312 0.302418 0.736600
LeftLeg -0.000000 -0.000000 11.109210
LeftFoot -8.118639 -12.527471 -0.398100
LeftToeBase -0.000000 0.817966 -0.000000
115
root -0.248738 38.230928 -0.867143 -88.923401 0.152754 -0.060561
Spine -0.246685 0.061709 0.315443
Spine1 -0.645696 -0.003900 0.004671
Spine2 1.482852 0.316273 0.461740
Spine3 0.147563 -0.077135 -0.405262
Neck -1.015491 -0.184509 -0.246938
Head -0.728804 -1.028055 -0.153954
RightShoulder 0.938615 -4.373250 -6.224956
RightArm -68.132286 -18.667477 -9.022772
RightForeArm 0.000000 -0.000000 -31.199768
RightForeArmRoll 4.648773 -0.000000 -0.000000
RightHand 0.000000 7.765495 -3.269385
RightHandEnd 0.000000 -0.000000 0.000000
RightHandThumb1 0.000000 -0.000000 0.000000
LeftShoulder 3.080903 5.193160 6.456091
LeftArm 67.680138 -38.156315 1.791070
LeftForeArm 0.000000 -0.000000 -19.163733
LeftForeArmRoll -4.574675 -0.000000 0.000000
LeftHand 0.000000 -21.258253 1.008274
LeftHandEnd 0.000000 -0.000000 0.000000
LeftHandThumb1 0.000000 -0.000000 0.000000
RightUpLeg 4.000491 -1.498783 9.296791
RightLeg -0.000000 -0.000000 14.418691
RightFoot 3.981740 -14.755610 -1.818678
RightToeBase -0.000000 0.898131 -0.000000
LeftUpLeg -5.152547 0.301195 0.734259
LeftLeg -0.000000 -0.000000 11.112497
LeftFoot -8.120835 -12.526843 -0.396275
LeftToeBase -0.000000 0.804621 -0.000000
116
root -0.248533 38.230604 -0.868044 -88.937897 0.149881 -0.061514
Spine -0.245543 0.060541 0.310786
Spine1 -0.644043 -0.004258 0.002890
Spine2 1.486519 0.314039 0.463352
Spine3 0.148482 -0.080095 -0.403308
Neck -1.016664 -0.175047 -0.237106
Head -0.721498 -1.023576 -0.156761
RightShoulder 0.929209 -4.368942 -6.226573
RightArm -68.143143 -18.641556 -9.020281
RightForeArm 0.000000 -0.000000 -31.202116
RightForeArmRoll 4.701227 -0.000000 -0.000000
RightHand 0.000000 7.726147 -3.301427
RightHandEnd 0.000000 -0.000000 0.000000
RightHandThumb1 0.000000 -0.000000 0.000000
LeftShoulder 3.090324 5.190045 6.448544
LeftArm 67.698639 -38.145504 1.773589
LeftForeArm 0.000000 -0.000000 -19.165400
LeftForeArmRoll -5.494526 -0.000000 0.000000
LeftHand -0.000000 -21.588734 0.366892
LeftHandEnd 0.000000 -0.000000 0.000000
LeftHandThumb1 0.000000 -0.000000 0.000000
RightUpLeg 3.997531 -1.478675 9.270888
RightLeg -0.000000 -0.000000 14.411715
RightFoot 3.988888 -14.750596 -1.790008
RightToeBase -0.000000 0.911645 -0.000000
LeftUpLeg -5.155646 0.309479 0.703617
LeftLeg -0.000000 -0.000000 11.119625
LeftFoot -8.080635 -12.525085 -0.376269
LeftToeBase -0.000000 0.796054 -0.000000
117
root -0.246222 38.230339 -0.868632 -88.948624 0.157116 -0.066142
Spine -0.247043 0.060216 0.312747
Spine1 -0.645677 -0.004281 0.005974
Spine2 1.490764 0.313837 0.462128
Spine3 0.149060 -0.081953 -0.406280
Neck -1.008871 -0.160093 -0.241285
Head -0.723568 -1.017077 -0.129285
RightShoulder 0.929262 -4.367601 -6.224932
RightArm -68.137581 -18.651997 -9.024066
RightForeArm 0.000000 -0.000000 -31.192003
RightForeArmRoll 4.810702 -0.000000 -0.000000
RightHand -0.000000 7.744408 -3.341598
RightHandEnd 0.000000 -0.000000 0.000000
RightHandThumb1 0.000000 -0.000000 0.000000
LeftShoulder 3.096479 5.187729 6.451114
LeftArm 67.707626 -38.146641 1.770415
LeftForeArm 0.000000 -0.000000 -19.180321
LeftForeArmRoll -4.540728 -0.000000 0.000000
LeftHand 0.000000 -21.217981 1.042607
LeftHandEnd 0.000000 -0.000000 0.000000
LeftHandThumb1 0.000000 -0.000000 0.000000
RightUpLeg 4.013436 -1.466587 9.282942
RightLeg -0.000000 -0.000000 14.402655
RightFoot 3.980586 -14.746306 -1.808073
RightToeBase -0.000000 0.924899 -0.000000
LeftUpLeg -5.141473 0.328553 0.720915
LeftLeg -0.000000 -0.000000 11.107366
LeftFoot -8.081170 -12.514314 -0.396635
LeftToeBase -0.000000 0.778825 -0.000000
